<svg xmlns="http://www.w3.org/2000/svg" viewBox="0 0 64 64" width="64px" height="64px"><radialGradient id="iRhKLcel~MEdx575gCApga" cx="28.5" cy="35.5" r="29" gradientUnits="userSpaceOnUse" spreadMethod="reflect"><stop offset="0" stop-color="#e9ce8e"/><stop offset="0" stop-color="#e9ce8e"/><stop offset=".241" stop-color="#f1dca9"/><stop offset=".521" stop-color="#f9e8c0"/><stop offset=".782" stop-color="#fdefcf"/><stop offset="1" stop-color="#fff2d4"/></radialGradient><path fill="url(#iRhKLcel~MEdx575gCApga)" d="M55.5,24h-9.857c-1.308,0-2.5-0.941-2.63-2.242C42.863,20.261,44.034,19,45.5,19h5.33 c1.625,0,3.081-1.216,3.166-2.839C54.086,14.431,52.71,13,51,13h-1.357c-1.308,0-2.5-0.941-2.63-2.242C46.863,9.261,48.034,8,49.5,8 h4.33c1.625,0,3.081-1.216,3.166-2.839C57.086,3.431,55.71,2,54,2H6C4.375,2,2.919,3.216,2.834,4.839C2.744,6.569,4.12,8,5.83,8 h10.527c1.308,0,2.5,0.941,2.63,2.242C19.137,11.739,17.966,13,16.5,13H3.17c-1.625,0-3.081,1.216-3.166,2.839 C-0.086,17.569,1.29,19,3,19h6.357c1.308,0,2.499,0.941,2.63,2.242C12.137,22.739,10.966,24,9.5,24H8.643 c-1.308,0-2.499,0.941-2.63,2.242C5.863,27.739,7.034,29,8.5,29h7.33c1.624,0,3.081,1.216,3.165,2.839C19.086,33.569,17.71,35,16,35 h-6v6h3.5c0.828,0,1.5,0.672,1.5,1.5S14.328,44,13.5,44h-0.04v0.004c-1.448,0.023-2.607,1.289-2.445,2.774 C11.157,48.073,12.351,49,13.653,49H20v11h11V49h3.346c1.303,0,2.496-0.927,2.638-2.222c0.163-1.485-0.997-2.75-2.445-2.774V44H34.5 h-2c-0.929,0-1.66-0.844-1.47-1.807c0.143-0.722,0.836-1.166,1.571-1.196C33.935,40.945,35,39.847,35,38.5v-1 c0-0.171-0.018-0.338-0.05-0.5H42v-4c0-2.209,1.791-4,4-4h9.357c1.308,0,2.5-0.941,2.63-2.242C58.137,25.261,56.966,24,55.5,24z"/><linearGradient id="iRhKLcel~MEdx575gCApgb" x1="20" x2="20" y1="22" y2="5" gradientUnits="userSpaceOnUse" spreadMethod="reflect"><stop offset="0" stop-color="#ff634d"/><stop offset=".204" stop-color="#fe6464"/><stop offset=".521" stop-color="#fc6581"/><stop offset=".794" stop-color="#fa6694"/><stop offset=".989" stop-color="#fa669a"/><stop offset="1" stop-color="#fa669a"/></linearGradient><path fill="url(#iRhKLcel~MEdx575gCApgb)" d="M29.881,9.125c-0.427-2.046-2.119-3.672-4.176-4.039c-2.112-0.377-4.029,0.508-5.161,2.02 c-0.266,0.355-0.821,0.355-1.087,0c-1.132-1.512-3.049-2.397-5.161-2.02c-2.057,0.367-3.749,1.993-4.176,4.039 c-0.403,1.93,0.25,3.726,1.486,4.921l-0.002,0.001l7.237,7.469c0.638,0.645,1.681,0.645,2.319,0l7.233-7.467l-0.001,0 C29.631,12.853,30.284,11.057,29.881,9.125z"/><linearGradient id="iRhKLcel~MEdx575gCApgc" x1="50.5" x2="50.5" y1="37" y2="53" gradientUnits="userSpaceOnUse" spreadMethod="reflect"><stop offset="0" stop-color="#42d778"/><stop offset=".373" stop-color="#3dca76"/><stop offset=".87" stop-color="#34b171"/><stop offset="1" stop-color="#38bc73"/></linearGradient><path fill="url(#iRhKLcel~MEdx575gCApgc)" d="M55,53h-9c-4.411,0-8-3.589-8-8s3.589-8,8-8h9c4.411,0,8,3.589,8,8S59.411,53,55,53z M46,41 c-2.206,0-4,1.794-4,4s1.794,4,4,4h9c2.206,0,4-1.794,4-4s-1.794-4-4-4H46z"/><linearGradient id="iRhKLcel~MEdx575gCApgd" x1="30" x2="30" y1="33" y2="61" gradientUnits="userSpaceOnUse" spreadMethod="reflect"><stop offset="0" stop-color="#42d778"/><stop offset=".373" stop-color="#3dca76"/><stop offset=".87" stop-color="#34b171"/><stop offset="1" stop-color="#40d277"/></linearGradient><path fill="url(#iRhKLcel~MEdx575gCApgd)" d="M51,33H9c-1.657,0-3,1.343-3,3v7c0,6.673,4.673,12.24,10.922,13.643 C17.555,56.785,18,57.352,18,58v0c0,1.657,1.343,3,3,3h18c1.657,0,3-1.343,3-3v0c0-0.648,0.445-1.215,1.078-1.357 C49.327,55.24,54,49.673,54,43v-7C54,34.343,52.657,33,51,33z"/><linearGradient id="iRhKLcel~MEdx575gCApge" x1="38.5" x2="38.5" y1="19" y2="10" gradientUnits="userSpaceOnUse" spreadMethod="reflect"><stop offset="0" stop-color="#ff634d"/><stop offset=".204" stop-color="#fe6464"/><stop offset=".521" stop-color="#fc6581"/><stop offset=".794" stop-color="#fa6694"/><stop offset=".989" stop-color="#fa669a"/><stop offset="1" stop-color="#fa669a"/></linearGradient><path fill="url(#iRhKLcel~MEdx575gCApge)" d="M43.948,12.439c-0.216-1.175-1.162-2.145-2.334-2.378c-1.048-0.208-2.022,0.131-2.695,0.781 c-0.238,0.23-0.601,0.23-0.839,0c-0.673-0.65-1.647-0.988-2.695-0.781c-1.171,0.232-2.117,1.201-2.334,2.374 c-0.202,1.093,0.197,2.092,0.911,2.756l-0.007,0.005l3.906,3.56c0.351,0.324,0.924,0.324,1.275,0l3.881-3.538l0.009-0.021 C43.747,14.535,44.149,13.535,43.948,12.439z"/><linearGradient id="iRhKLcel~MEdx575gCApgf" x1="31.5" x2="31.5" y1="30" y2="21" gradientUnits="userSpaceOnUse" spreadMethod="reflect"><stop offset="0" stop-color="#ff634d"/><stop offset=".204" stop-color="#fe6464"/><stop offset=".521" stop-color="#fc6581"/><stop offset=".794" stop-color="#fa6694"/><stop offset=".989" stop-color="#fa669a"/><stop offset="1" stop-color="#fa669a"/></linearGradient><path fill="url(#iRhKLcel~MEdx575gCApgf)" d="M36.948,23.439c-0.216-1.175-1.162-2.145-2.334-2.378c-1.048-0.208-2.022,0.131-2.695,0.781 c-0.238,0.23-0.601,0.23-0.839,0c-0.673-0.65-1.647-0.988-2.695-0.781c-1.171,0.232-2.117,1.201-2.334,2.374 c-0.202,1.093,0.197,2.092,0.911,2.756l-0.007,0.005l3.906,3.56c0.351,0.324,0.924,0.324,1.275,0l3.881-3.538l0.009-0.021 C36.747,25.535,37.149,24.535,36.948,23.439z"/><path fill="#fff" d="M6,43v1h0.035C6.012,43.67,6,43.336,6,43 M28,33H6v3c0-1.657,1.343-3,3-3H28L28,33"/><linearGradient id="iRhKLcel~MEdx575gCApgg" x1="-296.571" x2="-295.571" y1="136.714" y2="136.714" gradientTransform="matrix(0 28 28 0 -3810 8337)" gradientUnits="userSpaceOnUse" spreadMethod="reflect"><stop offset="0" stop-color="#62de8f"/><stop offset=".416" stop-color="#5dd18d"/><stop offset=".87" stop-color="#56be89"/><stop offset="1" stop-color="#60da8e"/></linearGradient><path fill="url(#iRhKLcel~MEdx575gCApgg)" d="M28,33H9c-1.657,0-3,1.343-3,3v7c0,0.336,0.012,0.67,0.035,1H16 c0.996,0,1.92-0.681,2.08-1.664C18.283,41.083,17.321,40,16.106,40H10.5C9.672,40,9,39.328,9,38.5S9.672,37,10.5,37h17.394 c0.995,0,1.919-0.681,2.079-1.664C30.177,34.083,29.215,33,28,33"/><linearGradient id="iRhKLcel~MEdx575gCApgh" x1="-296.571" x2="-295.571" y1="136.857" y2="136.857" gradientTransform="matrix(0 28 28 0 -3810 8337)" gradientUnits="userSpaceOnUse" spreadMethod="reflect"><stop offset="0" stop-color="#62de8f"/><stop offset=".416" stop-color="#5dd18d"/><stop offset=".87" stop-color="#56be89"/><stop offset="1" stop-color="#60da8e"/></linearGradient><path fill="url(#iRhKLcel~MEdx575gCApgh)" d="M22,40c-1.104,0-2,0.896-2,2c0,1.104,0.895,2,2,2c1.105,0,2-0.896,2-2 C24,40.896,23.105,40,22,40"/><linearGradient id="iRhKLcel~MEdx575gCApgi" x1="39" x2="39" y1="57" y2="39" gradientUnits="userSpaceOnUse" spreadMethod="reflect"><stop offset="0" stop-color="#37ab6a"/><stop offset=".422" stop-color="#39b66f"/><stop offset="1" stop-color="#3ac074"/></linearGradient><path fill="url(#iRhKLcel~MEdx575gCApgi)" d="M43.078,56.643C49.327,55.24,54,49.673,54,43v-4H40.122c-0.997,0-1.927,0.675-2.093,1.658 C37.819,41.907,38.788,43,40,43h5.5c0.828,0,1.5,0.672,1.5,1.5S46.328,46,45.5,46H33.122c-0.997,0-1.928,0.675-2.093,1.658 C30.819,48.907,31.788,50,33,50h5.5c0.828,0,1.5,0.672,1.5,1.5S39.328,53,38.5,53H26.122c-0.997,0-1.928,0.675-2.093,1.658 C23.819,55.907,24.788,57,26,57h16.447C42.622,56.834,42.829,56.699,43.078,56.643z"/></svg>