<svg fill="#000000" xmlns="http://www.w3.org/2000/svg" viewBox="0 0 50 50" width="100px" height="100px"><path d="M 25 2 C 12.309295 2 2 12.309295 2 25 C 2 37.690705 12.309295 48 25 48 C 37.690705 48 48 37.690705 48 25 C 48 12.309295 37.690705 2 25 2 z M 25 4 C 36.609824 4 46 13.390176 46 25 C 46 36.609824 36.609824 46 25 46 C 13.390176 46 4 36.609824 4 25 C 4 13.390176 13.390176 4 25 4 z M 32.5 12 C 30.026563 12 28 14.026563 28 16.5 C 28 18.973437 30.026563 21 32.5 21 C 34.973437 21 37 18.973437 37 16.5 C 37 14.026563 34.973437 12 32.5 12 z M 22.5 14 C 20.578848 14 19 15.578848 19 17.5 C 19 19.421152 20.578848 21 22.5 21 C 24.421152 21 26 19.421152 26 17.5 C 26 15.578848 24.421152 14 22.5 14 z M 32.5 14 C 33.892557 14 35 15.107443 35 16.5 C 35 17.892557 33.892557 19 32.5 19 C 31.107443 19 30 17.892557 30 16.5 C 30 15.107443 31.107443 14 32.5 14 z M 14 16 C 12.35499 16 11 17.35499 11 19 C 11 20.64501 12.35499 22 14 22 C 15.64501 22 17 20.64501 17 19 C 17 17.35499 15.64501 16 14 16 z M 22.5 16 C 23.340272 16 24 16.659728 24 17.5 C 24 18.340272 23.340272 19 22.5 19 C 21.659728 19 21 18.340272 21 17.5 C 21 16.659728 21.659728 16 22.5 16 z M 14 18 C 14.564129 18 15 18.435871 15 19 C 15 19.564129 14.564129 20 14 20 C 13.435871 20 13 19.564129 13 19 C 13 18.435871 13.435871 18 14 18 z M 22.5 22 C 20.474523 22 18.700526 23.111081 17.746094 24.751953 C 16.900012 23.804778 15.701332 23.173131 14.355469 23.072266 A 1.0001 1.0001 0 0 0 14 23 A 1.0001 1.0001 0 0 0 13.640625 23.072266 C 11.065905 23.267263 9 25.377672 9 28 L 9 32 A 1.0001 1.0001 0 0 0 10 33 L 17 33 L 17 34 A 1.0001 1.0001 0 0 0 18 35 L 26 35 L 26 36 A 1.0001 1.0001 0 0 0 27 37 L 38 37 A 1.0001 1.0001 0 0 0 39 36 L 39 28.5 C 39 24.921732 36.078268 22 32.5 22 C 30.325503 22 28.398034 23.082819 27.216797 24.732422 C 26.31122 23.23321 24.707509 22.198277 22.855469 22.072266 A 1.0001 1.0001 0 0 0 22.5 22 z M 22.5 24 C 24.444423 24 26 25.555577 26 27.5 L 26 33 L 19 33 L 19 32 L 19 28 L 19 27.5 C 19 25.555577 20.555577 24 22.5 24 z M 32.5 24 C 34.997732 24 37 26.002268 37 28.5 L 37 35 L 28 35 L 28 34 L 28 28.5 C 28 26.002268 30.002268 24 32.5 24 z M 14 25 C 15.668484 25 17 26.331516 17 28 L 17 31 L 11 31 L 11 28 C 11 26.331516 12.331516 25 14 25 z"/></svg>